<svg version="1.1" xmlns="http://www.w3.org/2000/svg" viewBox="0 0 278.4180908203125 264.4682922363281" width="278.4180908203125" height="264.4682922363281">
  <!-- svg-source:excalidraw -->
  
  <defs>
    <style class="style-fonts">
      @font-face {
        font-family: "Virgil";
        src: url("https://excalidraw.com/Virgil.woff2");
      }
      @font-face {
        font-family: "Cascadia";
        src: url("https://excalidraw.com/Cascadia.woff2");
      }
    </style>
    
  </defs>
  <rect x="0" y="0" width="278.4180908203125" height="264.4682922363281" fill="#ffffff"></rect><g stroke-linecap="round" transform="translate(10 10) rotate(0 129.20904541015625 122.23414611816406)"><path d="M32 0 L226.42 0 L233.92 0.5 L240.42 2 L245.92 4.5 L250.42 8 L253.92 12.5 L256.42 18 L257.92 24.5 L258.42 32 L258.42 212.47 L257.92 219.97 L256.42 226.47 L253.92 231.97 L250.42 236.47 L245.92 239.97 L240.42 242.47 L233.92 243.97 L226.42 244.47 L32 244.47 L24.5 243.97 L18 242.47 L12.5 239.97 L8 236.47 L4.5 231.97 L2 226.47 L0.5 219.97 L0 212.47 L0.5 24.5 L2 18 L4.5 12.5 L8 8 L12.5 4.5 L18 2 L24.5 0.5 L32 0" stroke="none" stroke-width="0" fill="#1e1e1e"></path><path d="M32 0 M32 0 C102.98 0, 173.96 0, 226.42 0 M32 0 C90.88 0, 149.76 0, 226.42 0 M226.42 0 C247.75 0, 258.42 10.67, 258.42 32 M226.42 0 C247.75 0, 258.42 10.67, 258.42 32 M258.42 32 C258.42 76.42, 258.42 120.84, 258.42 212.47 M258.42 32 C258.42 72.54, 258.42 113.07, 258.42 212.47 M258.42 212.47 C258.42 233.8, 247.75 244.47, 226.42 244.47 M258.42 212.47 C258.42 233.8, 247.75 244.47, 226.42 244.47 M226.42 244.47 C153.04 244.47, 79.65 244.47, 32 244.47 M226.42 244.47 C157.52 244.47, 88.63 244.47, 32 244.47 M32 244.47 C10.67 244.47, 0 233.8, 0 212.47 M32 244.47 C10.67 244.47, 0 233.8, 0 212.47 M0 212.47 C0 148.29, 0 84.11, 0 32 M0 212.47 C0 164.65, 0 116.84, 0 32 M0 32 C0 10.67, 10.67 0, 32 0 M0 32 C0 10.67, 10.67 0, 32 0" stroke="#1e1e1e" stroke-width="4" fill="none"></path></g><g stroke-linecap="round" transform="translate(28.63665771484375 29.484939575195312) rotate(0 111.29888916015625 104.16781616210938)"><path d="M32 0 L190.6 0 L198.1 0.5 L204.6 2 L210.1 4.5 L214.6 8 L218.1 12.5 L220.6 18 L222.1 24.5 L222.6 32 L222.6 176.34 L222.1 183.84 L220.6 190.34 L218.1 195.84 L214.6 200.34 L210.1 203.84 L204.6 206.34 L198.1 207.84 L190.6 208.34 L32 208.34 L24.5 207.84 L18 206.34 L12.5 203.84 L8 200.34 L4.5 195.84 L2 190.34 L0.5 183.84 L0 176.34 L0.5 24.5 L2 18 L4.5 12.5 L8 8 L12.5 4.5 L18 2 L24.5 0.5 L32 0" stroke="none" stroke-width="0" fill="#ffffff"></path><path d="M32 0 M32 0 C67.57 0, 103.15 0, 190.6 0 M32 0 C89.66 0, 147.32 0, 190.6 0 M190.6 0 C211.93 0, 222.6 10.67, 222.6 32 M190.6 0 C211.93 0, 222.6 10.67, 222.6 32 M222.6 32 C222.6 75.44, 222.6 118.89, 222.6 176.34 M222.6 32 C222.6 62.75, 222.6 93.49, 222.6 176.34 M222.6 176.34 C222.6 197.67, 211.93 208.34, 190.6 208.34 M222.6 176.34 C222.6 197.67, 211.93 208.34, 190.6 208.34 M190.6 208.34 C153.9 208.34, 117.2 208.34, 32 208.34 M190.6 208.34 C149.88 208.34, 109.17 208.34, 32 208.34 M32 208.34 C10.67 208.34, 0 197.67, 0 176.34 M32 208.34 C10.67 208.34, 0 197.67, 0 176.34 M0 176.34 C0 120.03, 0 63.73, 0 32 M0 176.34 C0 123.5, 0 70.66, 0 32 M0 32 C0 10.67, 10.67 0, 32 0 M0 32 C0 10.67, 10.67 0, 32 0" stroke="#1e1e1e" stroke-width="4" fill="none"></path></g><g stroke-linecap="round" transform="translate(26.180908203125 181.5783233642578) rotate(0 114.16806030273438 28.14569091796875)"><path d="M0 0 L228.34 0 L228.34 56.29 L0 56.29" stroke="none" stroke-width="0" fill="#1e1e1e"></path><path d="M0 0 C88.85 0, 177.71 0, 228.34 0 M0 0 C73.38 0, 146.75 0, 228.34 0 M228.34 0 C228.34 20.74, 228.34 41.49, 228.34 56.29 M228.34 0 C228.34 17.93, 228.34 35.86, 228.34 56.29 M228.34 56.29 C157.45 56.29, 86.57 56.29, 0 56.29 M228.34 56.29 C150.1 56.29, 71.86 56.29, 0 56.29 M0 56.29 C0 38.39, 0 20.49, 0 0 M0 56.29 C0 35.83, 0 15.36, 0 0" stroke="#1e1e1e" stroke-width="4" fill="none"></path></g></svg>