<svg version="1.1" xmlns="http://www.w3.org/2000/svg" viewBox="0 0 278.4180908203125 264.4682922363281" width="278.4180908203125" height="264.4682922363281">
  <!-- svg-source:excalidraw -->
  
  <defs>
    <style class="style-fonts">
      @font-face {
        font-family: "Virgil";
        src: url("https://excalidraw.com/Virgil.woff2");
      }
      @font-face {
        font-family: "Cascadia";
        src: url("https://excalidraw.com/Cascadia.woff2");
      }
    </style>
    
  </defs>
  <rect x="0" y="0" width="278.4180908203125" height="264.4682922363281" fill="#ffffff"></rect><g stroke-linecap="round" transform="translate(10 10) rotate(0 129.20904541015625 122.23414611816406)"><path d="M32 0 L226.42 0 L233.92 0.5 L240.42 2 L245.92 4.5 L250.42 8 L253.92 12.5 L256.42 18 L257.92 24.5 L258.42 32 L258.42 212.47 L257.92 219.97 L256.42 226.47 L253.92 231.97 L250.42 236.47 L245.92 239.97 L240.42 242.47 L233.92 243.97 L226.42 244.47 L32 244.47 L24.5 243.97 L18 242.47 L12.5 239.97 L8 236.47 L4.5 231.97 L2 226.47 L0.5 219.97 L0 212.47 L0.5 24.5 L2 18 L4.5 12.5 L8 8 L12.5 4.5 L18 2 L24.5 0.5 L32 0" stroke="none" stroke-width="0" fill="#1e1e1e"></path><path d="M32 0 M32 0 C84.75 0, 137.5 0, 226.42 0 M32 0 C75.98 0, 119.96 0, 226.42 0 M226.42 0 C247.75 0, 258.42 10.67, 258.42 32 M226.42 0 C247.75 0, 258.42 10.67, 258.42 32 M258.42 32 C258.42 94.51, 258.42 157.01, 258.42 212.47 M258.42 32 C258.42 93.94, 258.42 155.88, 258.42 212.47 M258.42 212.47 C258.42 233.8, 247.75 244.47, 226.42 244.47 M258.42 212.47 C258.42 233.8, 247.75 244.47, 226.42 244.47 M226.42 244.47 C152.64 244.47, 78.87 244.47, 32 244.47 M226.42 244.47 C152.34 244.47, 78.26 244.47, 32 244.47 M32 244.47 C10.67 244.47, 0 233.8, 0 212.47 M32 244.47 C10.67 244.47, 0 233.8, 0 212.47 M0 212.47 C0 171.08, 0 129.69, 0 32 M0 212.47 C0 169.45, 0 126.43, 0 32 M0 32 C0 10.67, 10.67 0, 32 0 M0 32 C0 10.67, 10.67 0, 32 0" stroke="#1e1e1e" stroke-width="4" fill="none"></path></g><g stroke-linecap="round" transform="translate(28.63665771484375 29.484939575195312) rotate(0 111.29888916015625 104.16781616210938)"><path d="M32 0 L190.6 0 L198.1 0.5 L204.6 2 L210.1 4.5 L214.6 8 L218.1 12.5 L220.6 18 L222.1 24.5 L222.6 32 L222.6 176.34 L222.1 183.84 L220.6 190.34 L218.1 195.84 L214.6 200.34 L210.1 203.84 L204.6 206.34 L198.1 207.84 L190.6 208.34 L32 208.34 L24.5 207.84 L18 206.34 L12.5 203.84 L8 200.34 L4.5 195.84 L2 190.34 L0.5 183.84 L0 176.34 L0.5 24.5 L2 18 L4.5 12.5 L8 8 L12.5 4.5 L18 2 L24.5 0.5 L32 0" stroke="none" stroke-width="0" fill="#ffffff"></path><path d="M32 0 M32 0 C73.32 0, 114.64 0, 190.6 0 M32 0 C82.45 0, 132.89 0, 190.6 0 M190.6 0 C211.93 0, 222.6 10.67, 222.6 32 M190.6 0 C211.93 0, 222.6 10.67, 222.6 32 M222.6 32 C222.6 67.3, 222.6 102.59, 222.6 176.34 M222.6 32 C222.6 82.13, 222.6 132.27, 222.6 176.34 M222.6 176.34 C222.6 197.67, 211.93 208.34, 190.6 208.34 M222.6 176.34 C222.6 197.67, 211.93 208.34, 190.6 208.34 M190.6 208.34 C156.19 208.34, 121.78 208.34, 32 208.34 M190.6 208.34 C131.84 208.34, 73.08 208.34, 32 208.34 M32 208.34 C10.67 208.34, 0 197.67, 0 176.34 M32 208.34 C10.67 208.34, 0 197.67, 0 176.34 M0 176.34 C0 136.25, 0 96.16, 0 32 M0 176.34 C0 131.74, 0 87.15, 0 32 M0 32 C0 10.67, 10.67 0, 32 0 M0 32 C0 10.67, 10.67 0, 32 0" stroke="#1e1e1e" stroke-width="4" fill="none"></path></g><g stroke-linecap="round" transform="translate(157.56080136315853 58.98182841083667) rotate(180.17697208604415 31.88218963230358 31.177707012871792)"><path d="M15.59 0 L51.83 0.24 L57.67 2.19 L61.57 6.09 L62.79 8.77 L63.76 15.59 L63.52 50.42 L61.57 56.27 L57.67 60.16 L55 61.38 L48.18 62.36 L11.94 62.11 L6.09 60.16 L2.19 56.27 L0.97 53.59 L0 46.77 L0 15.59 L0.97 8.77 L2.19 6.09 L6.09 2.19 L8.77 0.97 L15.59 0" stroke="none" stroke-width="0" fill="#1e1e1e"></path><path d="M15.59 0 M15.59 0 C23.7 0, 31.81 0, 48.18 0 M15.59 0 C26.28 0, 36.96 0, 48.18 0 M48.18 0 C58.57 0, 63.76 5.2, 63.76 15.59 M48.18 0 C58.57 0, 63.76 5.2, 63.76 15.59 M63.76 15.59 C63.76 23.45, 63.76 31.3, 63.76 46.77 M63.76 15.59 C63.76 23.19, 63.76 30.79, 63.76 46.77 M63.76 46.77 C63.76 57.16, 58.57 62.36, 48.18 62.36 M63.76 46.77 C63.76 57.16, 58.57 62.36, 48.18 62.36 M48.18 62.36 C35.85 62.36, 23.53 62.36, 15.59 62.36 M48.18 62.36 C39.52 62.36, 30.86 62.36, 15.59 62.36 M15.59 62.36 C5.2 62.36, 0 57.16, 0 46.77 M15.59 62.36 C5.2 62.36, 0 57.16, 0 46.77 M0 46.77 C0 37.9, 0 29.04, 0 15.59 M0 46.77 C0 39.74, 0 32.71, 0 15.59 M0 15.59 C0 5.2, 5.2 0, 15.59 0 M0 15.59 C0 5.2, 5.2 0, 15.59 0" stroke="#1e1e1e" stroke-width="4" fill="none"></path></g><g stroke-linecap="round" transform="translate(175.71999483839716 40.96672761054856) rotate(180.17697208604415 31.88218963230358 31.177707012871792)"><path d="M15.59 0 L51.83 0.24 L57.67 2.19 L61.57 6.09 L62.79 8.77 L63.76 15.59 L63.52 50.42 L61.57 56.27 L57.67 60.16 L55 61.38 L48.18 62.36 L11.94 62.11 L6.09 60.16 L2.19 56.27 L0.97 53.59 L0 46.77 L0 15.59 L0.97 8.77 L2.19 6.09 L6.09 2.19 L8.77 0.97 L15.59 0" stroke="none" stroke-width="0" fill="#ffffff"></path><path d="M15.59 0 M15.59 0 C28.42 0, 41.26 0, 48.18 0 M15.59 0 C23.34 0, 31.09 0, 48.18 0 M48.18 0 C58.57 0, 63.76 5.2, 63.76 15.59 M48.18 0 C58.57 0, 63.76 5.2, 63.76 15.59 M63.76 15.59 C63.76 24.05, 63.76 32.51, 63.76 46.77 M63.76 15.59 C63.76 22.64, 63.76 29.7, 63.76 46.77 M63.76 46.77 C63.76 57.16, 58.57 62.36, 48.18 62.36 M63.76 46.77 C63.76 57.16, 58.57 62.36, 48.18 62.36 M48.18 62.36 C36.89 62.36, 25.6 62.36, 15.59 62.36 M48.18 62.36 C36.99 62.36, 25.81 62.36, 15.59 62.36 M15.59 62.36 C5.2 62.36, 0 57.16, 0 46.77 M15.59 62.36 C5.2 62.36, 0 57.16, 0 46.77 M0 46.77 C0 34.94, 0 23.1, 0 15.59 M0 46.77 C0 34.89, 0 23.01, 0 15.59 M0 15.59 C0 5.2, 5.2 0, 15.59 0 M0 15.59 C0 5.2, 5.2 0, 15.59 0" stroke="#ffffff" stroke-width="4" fill="none"></path></g><g stroke-linecap="round" transform="translate(57.38033869229767 59.51188735197411) rotate(450.4377197585043 31.882189632303565 31.177707012871792)"><path d="M15.59 0 L51.83 0.24 L57.67 2.19 L61.57 6.09 L62.79 8.77 L63.76 15.59 L63.52 50.42 L61.57 56.27 L57.67 60.16 L55 61.38 L48.18 62.36 L11.94 62.11 L6.09 60.16 L2.19 56.27 L0.97 53.59 L0 46.77 L0 15.59 L0.97 8.77 L2.19 6.09 L6.09 2.19 L8.77 0.97 L15.59 0" stroke="none" stroke-width="0" fill="#1e1e1e"></path><path d="M15.59 0 M15.59 0 C27.92 0, 40.25 0, 48.18 0 M15.59 0 C28.12 0, 40.65 0, 48.18 0 M48.18 0 C58.57 0, 63.76 5.2, 63.76 15.59 M48.18 0 C58.57 0, 63.76 5.2, 63.76 15.59 M63.76 15.59 C63.76 26.35, 63.76 37.11, 63.76 46.77 M63.76 15.59 C63.76 26.13, 63.76 36.68, 63.76 46.77 M63.76 46.77 C63.76 57.16, 58.57 62.36, 48.18 62.36 M63.76 46.77 C63.76 57.16, 58.57 62.36, 48.18 62.36 M48.18 62.36 C36.22 62.36, 24.27 62.36, 15.59 62.36 M48.18 62.36 C37.18 62.36, 26.18 62.36, 15.59 62.36 M15.59 62.36 C5.2 62.36, 0 57.16, 0 46.77 M15.59 62.36 C5.2 62.36, 0 57.16, 0 46.77 M0 46.77 C0 37.82, 0 28.87, 0 15.59 M0 46.77 C0 36.37, 0 25.97, 0 15.59 M0 15.59 C0 5.2, 5.2 0, 15.59 0 M0 15.59 C0 5.2, 5.2 0, 15.59 0" stroke="#1e1e1e" stroke-width="4" fill="none"></path></g><g stroke-linecap="round" transform="translate(39.448064931132876 41.27089718503589) rotate(450.4377197585043 31.88218963230358 31.177707012871792)"><path d="M15.59 0 L51.83 0.24 L57.67 2.19 L61.57 6.09 L62.79 8.77 L63.76 15.59 L63.52 50.42 L61.57 56.27 L57.67 60.16 L55 61.38 L48.18 62.36 L11.94 62.11 L6.09 60.16 L2.19 56.27 L0.97 53.59 L0 46.77 L0 15.59 L0.97 8.77 L2.19 6.09 L6.09 2.19 L8.77 0.97 L15.59 0" stroke="none" stroke-width="0" fill="#ffffff"></path><path d="M15.59 0 M15.59 0 C26.55 0, 37.52 0, 48.18 0 M15.59 0 C26 0, 36.4 0, 48.18 0 M48.18 0 C58.57 0, 63.76 5.2, 63.76 15.59 M48.18 0 C58.57 0, 63.76 5.2, 63.76 15.59 M63.76 15.59 C63.76 22.97, 63.76 30.35, 63.76 46.77 M63.76 15.59 C63.76 24.17, 63.76 32.76, 63.76 46.77 M63.76 46.77 C63.76 57.16, 58.57 62.36, 48.18 62.36 M63.76 46.77 C63.76 57.16, 58.57 62.36, 48.18 62.36 M48.18 62.36 C39.13 62.36, 30.08 62.36, 15.59 62.36 M48.18 62.36 C41.43 62.36, 34.69 62.36, 15.59 62.36 M15.59 62.36 C5.2 62.36, 0 57.16, 0 46.77 M15.59 62.36 C5.2 62.36, 0 57.16, 0 46.77 M0 46.77 C0 39.93, 0 33.1, 0 15.59 M0 46.77 C0 40.12, 0 33.48, 0 15.59 M0 15.59 C0 5.2, 5.2 0, 15.59 0 M0 15.59 C0 5.2, 5.2 0, 15.59 0" stroke="#ffffff" stroke-width="4" fill="none"></path></g><g stroke-linecap="round" transform="translate(57.22455570928983 147.0631288002537) rotate(719.3654245523425 31.882189632303565 31.177707012871792)"><path d="M15.59 0 L51.83 0.24 L57.67 2.19 L61.57 6.09 L62.79 8.77 L63.76 15.59 L63.52 50.42 L61.57 56.27 L57.67 60.16 L55 61.38 L48.18 62.36 L11.94 62.11 L6.09 60.16 L2.19 56.27 L0.97 53.59 L0 46.77 L0 15.59 L0.97 8.77 L2.19 6.09 L6.09 2.19 L8.77 0.97 L15.59 0" stroke="none" stroke-width="0" fill="#1e1e1e"></path><path d="M15.59 0 M15.59 0 C24.83 0, 34.07 0, 48.18 0 M15.59 0 C25.91 0, 36.24 0, 48.18 0 M48.18 0 C58.57 0, 63.76 5.2, 63.76 15.59 M48.18 0 C58.57 0, 63.76 5.2, 63.76 15.59 M63.76 15.59 C63.76 27.51, 63.76 39.43, 63.76 46.77 M63.76 15.59 C63.76 24.34, 63.76 33.09, 63.76 46.77 M63.76 46.77 C63.76 57.16, 58.57 62.36, 48.18 62.36 M63.76 46.77 C63.76 57.16, 58.57 62.36, 48.18 62.36 M48.18 62.36 C40.73 62.36, 33.27 62.36, 15.59 62.36 M48.18 62.36 C41.55 62.36, 34.92 62.36, 15.59 62.36 M15.59 62.36 C5.2 62.36, 0 57.16, 0 46.77 M15.59 62.36 C5.2 62.36, 0 57.16, 0 46.77 M0 46.77 C0 37.49, 0 28.2, 0 15.59 M0 46.77 C0 39.75, 0 32.73, 0 15.59 M0 15.59 C0 5.2, 5.2 0, 15.59 0 M0 15.59 C0 5.2, 5.2 0, 15.59 0" stroke="#1e1e1e" stroke-width="4" fill="none"></path></g><g stroke-linecap="round" transform="translate(39.32234432297821 165.33362392205004) rotate(719.3654245523425 31.88218963230358 31.177707012871792)"><path d="M15.59 0 L51.83 0.24 L57.67 2.19 L61.57 6.09 L62.79 8.77 L63.76 15.59 L63.52 50.42 L61.57 56.27 L57.67 60.16 L55 61.38 L48.18 62.36 L11.94 62.11 L6.09 60.16 L2.19 56.27 L0.97 53.59 L0 46.77 L0 15.59 L0.97 8.77 L2.19 6.09 L6.09 2.19 L8.77 0.97 L15.59 0" stroke="none" stroke-width="0" fill="#ffffff"></path><path d="M15.59 0 M15.59 0 C23.28 0, 30.98 0, 48.18 0 M15.59 0 C26.94 0, 38.3 0, 48.18 0 M48.18 0 C58.57 0, 63.76 5.2, 63.76 15.59 M48.18 0 C58.57 0, 63.76 5.2, 63.76 15.59 M63.76 15.59 C63.76 27.38, 63.76 39.18, 63.76 46.77 M63.76 15.59 C63.76 27.68, 63.76 39.78, 63.76 46.77 M63.76 46.77 C63.76 57.16, 58.57 62.36, 48.18 62.36 M63.76 46.77 C63.76 57.16, 58.57 62.36, 48.18 62.36 M48.18 62.36 C35.29 62.36, 22.41 62.36, 15.59 62.36 M48.18 62.36 C36 62.36, 23.82 62.36, 15.59 62.36 M15.59 62.36 C5.2 62.36, 0 57.16, 0 46.77 M15.59 62.36 C5.2 62.36, 0 57.16, 0 46.77 M0 46.77 C0 36.13, 0 25.49, 0 15.59 M0 46.77 C0 38.1, 0 29.43, 0 15.59 M0 15.59 C0 5.2, 5.2 0, 15.59 0 M0 15.59 C0 5.2, 5.2 0, 15.59 0" stroke="#ffffff" stroke-width="4" fill="none"></path></g><g stroke-linecap="round" transform="translate(159.5223571779796 146.3073252727129) rotate(631.4833183894136 31.88218963230358 31.177707012871792)"><path d="M15.59 0 L51.83 0.24 L57.67 2.19 L61.57 6.09 L62.79 8.77 L63.76 15.59 L63.52 50.42 L61.57 56.27 L57.67 60.16 L55 61.38 L48.18 62.36 L11.94 62.11 L6.09 60.16 L2.19 56.27 L0.97 53.59 L0 46.77 L0 15.59 L0.97 8.77 L2.19 6.09 L6.09 2.19 L8.77 0.97 L15.59 0" stroke="none" stroke-width="0" fill="#1e1e1e"></path><path d="M15.59 0 M15.59 0 C24.08 0, 32.57 0, 48.18 0 M15.59 0 C27.06 0, 38.53 0, 48.18 0 M48.18 0 C58.57 0, 63.76 5.2, 63.76 15.59 M48.18 0 C58.57 0, 63.76 5.2, 63.76 15.59 M63.76 15.59 C63.76 24.88, 63.76 34.16, 63.76 46.77 M63.76 15.59 C63.76 26.44, 63.76 37.3, 63.76 46.77 M63.76 46.77 C63.76 57.16, 58.57 62.36, 48.18 62.36 M63.76 46.77 C63.76 57.16, 58.57 62.36, 48.18 62.36 M48.18 62.36 C36.14 62.36, 24.11 62.36, 15.59 62.36 M48.18 62.36 C37.58 62.36, 26.99 62.36, 15.59 62.36 M15.59 62.36 C5.2 62.36, 0 57.16, 0 46.77 M15.59 62.36 C5.2 62.36, 0 57.16, 0 46.77 M0 46.77 C0 36.95, 0 27.13, 0 15.59 M0 46.77 C0 35.31, 0 23.85, 0 15.59 M0 15.59 C0 5.2, 5.2 0, 15.59 0 M0 15.59 C0 5.2, 5.2 0, 15.59 0" stroke="#1e1e1e" stroke-width="4" fill="none"></path></g><g stroke-linecap="round" transform="translate(177.11878113553848 164.87250850427768) rotate(631.4833183894136 31.88218963230358 31.177707012871792)"><path d="M15.59 0 L51.83 0.24 L57.67 2.19 L61.57 6.09 L62.79 8.77 L63.76 15.59 L63.52 50.42 L61.57 56.27 L57.67 60.16 L55 61.38 L48.18 62.36 L11.94 62.11 L6.09 60.16 L2.19 56.27 L0.97 53.59 L0 46.77 L0 15.59 L0.97 8.77 L2.19 6.09 L6.09 2.19 L8.77 0.97 L15.59 0" stroke="none" stroke-width="0" fill="#ffffff"></path><path d="M15.59 0 M15.59 0 C22.41 0, 29.23 0, 48.18 0 M15.59 0 C25.17 0, 34.76 0, 48.18 0 M48.18 0 C58.57 0, 63.76 5.2, 63.76 15.59 M48.18 0 C58.57 0, 63.76 5.2, 63.76 15.59 M63.76 15.59 C63.76 22.08, 63.76 28.57, 63.76 46.77 M63.76 15.59 C63.76 22.94, 63.76 30.3, 63.76 46.77 M63.76 46.77 C63.76 57.16, 58.57 62.36, 48.18 62.36 M63.76 46.77 C63.76 57.16, 58.57 62.36, 48.18 62.36 M48.18 62.36 C40.41 62.36, 32.64 62.36, 15.59 62.36 M48.18 62.36 C41.53 62.36, 34.88 62.36, 15.59 62.36 M15.59 62.36 C5.2 62.36, 0 57.16, 0 46.77 M15.59 62.36 C5.2 62.36, 0 57.16, 0 46.77 M0 46.77 C0 39.35, 0 31.93, 0 15.59 M0 46.77 C0 37.53, 0 28.3, 0 15.59 M0 15.59 C0 5.2, 5.2 0, 15.59 0 M0 15.59 C0 5.2, 5.2 0, 15.59 0" stroke="#ffffff" stroke-width="4" fill="none"></path></g></svg>