<svg version="1.1" xmlns="http://www.w3.org/2000/svg" viewBox="0 0 278.4180908203125 264.4682922363281" width="278.4180908203125" height="264.4682922363281">
  <!-- svg-source:excalidraw -->
  
  <defs>
    <style class="style-fonts">
      @font-face {
        font-family: "Virgil";
        src: url("https://excalidraw.com/Virgil.woff2");
      }
      @font-face {
        font-family: "Cascadia";
        src: url("https://excalidraw.com/Cascadia.woff2");
      }
    </style>
    
  </defs>
  <rect x="0" y="0" width="278.4180908203125" height="264.4682922363281" fill="#ffffff"></rect><g stroke-linecap="round" transform="translate(10 10) rotate(0 129.20904541015625 122.23414611816406)"><path d="M32 0 L226.42 0 L233.92 0.5 L240.42 2 L245.92 4.5 L250.42 8 L253.92 12.5 L256.42 18 L257.92 24.5 L258.42 32 L258.42 212.47 L257.92 219.97 L256.42 226.47 L253.92 231.97 L250.42 236.47 L245.92 239.97 L240.42 242.47 L233.92 243.97 L226.42 244.47 L32 244.47 L24.5 243.97 L18 242.47 L12.5 239.97 L8 236.47 L4.5 231.97 L2 226.47 L0.5 219.97 L0 212.47 L0.5 24.5 L2 18 L4.5 12.5 L8 8 L12.5 4.5 L18 2 L24.5 0.5 L32 0" stroke="none" stroke-width="0" fill="#1e1e1e"></path><path d="M32 0 M32 0 C106.42 0, 180.85 0, 226.42 0 M32 0 C83.48 0, 134.96 0, 226.42 0 M226.42 0 C247.75 0, 258.42 10.67, 258.42 32 M226.42 0 C247.75 0, 258.42 10.67, 258.42 32 M258.42 32 C258.42 74.28, 258.42 116.56, 258.42 212.47 M258.42 32 C258.42 98.71, 258.42 165.42, 258.42 212.47 M258.42 212.47 C258.42 233.8, 247.75 244.47, 226.42 244.47 M258.42 212.47 C258.42 233.8, 247.75 244.47, 226.42 244.47 M226.42 244.47 C160.36 244.47, 94.3 244.47, 32 244.47 M226.42 244.47 C175.77 244.47, 125.12 244.47, 32 244.47 M32 244.47 C10.67 244.47, 0 233.8, 0 212.47 M32 244.47 C10.67 244.47, 0 233.8, 0 212.47 M0 212.47 C0 156.23, 0 99.98, 0 32 M0 212.47 C0 173.69, 0 134.91, 0 32 M0 32 C0 10.67, 10.67 0, 32 0 M0 32 C0 10.67, 10.67 0, 32 0" stroke="#1e1e1e" stroke-width="4" fill="none"></path></g><g stroke-linecap="round" transform="translate(28.63665771484375 29.484939575195312) rotate(0 111.29888916015625 104.16781616210938)"><path d="M32 0 L190.6 0 L198.1 0.5 L204.6 2 L210.1 4.5 L214.6 8 L218.1 12.5 L220.6 18 L222.1 24.5 L222.6 32 L222.6 176.34 L222.1 183.84 L220.6 190.34 L218.1 195.84 L214.6 200.34 L210.1 203.84 L204.6 206.34 L198.1 207.84 L190.6 208.34 L32 208.34 L24.5 207.84 L18 206.34 L12.5 203.84 L8 200.34 L4.5 195.84 L2 190.34 L0.5 183.84 L0 176.34 L0.5 24.5 L2 18 L4.5 12.5 L8 8 L12.5 4.5 L18 2 L24.5 0.5 L32 0" stroke="none" stroke-width="0" fill="#ffffff"></path><path d="M32 0 M32 0 C94.02 0, 156.04 0, 190.6 0 M32 0 C81.18 0, 130.35 0, 190.6 0 M190.6 0 C211.93 0, 222.6 10.67, 222.6 32 M190.6 0 C211.93 0, 222.6 10.67, 222.6 32 M222.6 32 C222.6 76.72, 222.6 121.45, 222.6 176.34 M222.6 32 C222.6 65.67, 222.6 99.34, 222.6 176.34 M222.6 176.34 C222.6 197.67, 211.93 208.34, 190.6 208.34 M222.6 176.34 C222.6 197.67, 211.93 208.34, 190.6 208.34 M190.6 208.34 C148.81 208.34, 107.02 208.34, 32 208.34 M190.6 208.34 C138.07 208.34, 85.54 208.34, 32 208.34 M32 208.34 C10.67 208.34, 0 197.67, 0 176.34 M32 208.34 C10.67 208.34, 0 197.67, 0 176.34 M0 176.34 C0 123.08, 0 69.82, 0 32 M0 176.34 C0 132.79, 0 89.25, 0 32 M0 32 C0 10.67, 10.67 0, 32 0 M0 32 C0 10.67, 10.67 0, 32 0" stroke="#1e1e1e" stroke-width="4" fill="none"></path></g><g stroke-linecap="round" transform="translate(148.71935058933474 52.43756368828622) rotate(0 39.490319094663676 38.61772396368758)"><path d="M19.31 0 L64.2 0.3 L71.44 2.72 L76.27 7.54 L78.68 14.78 L78.98 19.31 L78.68 62.45 L76.27 69.69 L71.44 74.52 L68.12 76.03 L59.67 77.24 L14.78 76.93 L7.54 74.52 L2.72 69.69 L1.21 66.37 L0 57.93 L0 19.31 L1.21 10.86 L4.83 4.83 L7.54 2.72 L14.78 0.3 L19.31 0" stroke="none" stroke-width="0" fill="#1e1e1e"></path><path d="M19.31 0 M19.31 0 C31.68 0, 44.06 0, 59.67 0 M19.31 0 C33.34 0, 47.37 0, 59.67 0 M59.67 0 C72.54 0, 78.98 6.44, 78.98 19.31 M59.67 0 C72.54 0, 78.98 6.44, 78.98 19.31 M78.98 19.31 C78.98 27.35, 78.98 35.4, 78.98 57.93 M78.98 19.31 C78.98 31.62, 78.98 43.93, 78.98 57.93 M78.98 57.93 C78.98 70.8, 72.54 77.24, 59.67 77.24 M78.98 57.93 C78.98 70.8, 72.54 77.24, 59.67 77.24 M59.67 77.24 C51.33 77.24, 42.99 77.24, 19.31 77.24 M59.67 77.24 C45.58 77.24, 31.49 77.24, 19.31 77.24 M19.31 77.24 C6.44 77.24, 0 70.8, 0 57.93 M19.31 77.24 C6.44 77.24, 0 70.8, 0 57.93 M0 57.93 C0 45.09, 0 32.26, 0 19.31 M0 57.93 C0 49.03, 0 40.13, 0 19.31 M0 19.31 C0 6.44, 6.44 0, 19.31 0 M0 19.31 C0 6.44, 6.44 0, 19.31 0" stroke="#1e1e1e" stroke-width="4" fill="none"></path></g><g stroke-linecap="round" transform="translate(126.29581149044674 74.82102190803039) rotate(0 39.490319094663676 38.61772396368758)"><path d="M19.31 0 L64.2 0.3 L71.44 2.72 L76.27 7.54 L78.68 14.78 L78.98 19.31 L78.68 62.45 L76.27 69.69 L71.44 74.52 L68.12 76.03 L59.67 77.24 L14.78 76.93 L7.54 74.52 L2.72 69.69 L1.21 66.37 L0 57.93 L0 19.31 L1.21 10.86 L4.83 4.83 L7.54 2.72 L14.78 0.3 L19.31 0" stroke="none" stroke-width="0" fill="#ffffff"></path><path d="M19.31 0 M19.31 0 C30.6 0, 41.89 0, 59.67 0 M19.31 0 C32.22 0, 45.12 0, 59.67 0 M59.67 0 C72.54 0, 78.98 6.44, 78.98 19.31 M59.67 0 C72.54 0, 78.98 6.44, 78.98 19.31 M78.98 19.31 C78.98 29.29, 78.98 39.28, 78.98 57.93 M78.98 19.31 C78.98 31.67, 78.98 44.02, 78.98 57.93 M78.98 57.93 C78.98 70.8, 72.54 77.24, 59.67 77.24 M78.98 57.93 C78.98 70.8, 72.54 77.24, 59.67 77.24 M59.67 77.24 C50.01 77.24, 40.35 77.24, 19.31 77.24 M59.67 77.24 C50.95 77.24, 42.23 77.24, 19.31 77.24 M19.31 77.24 C6.44 77.24, 0 70.8, 0 57.93 M19.31 77.24 C6.44 77.24, 0 70.8, 0 57.93 M0 57.93 C0 48.03, 0 38.13, 0 19.31 M0 57.93 C0 45.81, 0 33.7, 0 19.31 M0 19.31 C0 6.44, 6.44 0, 19.31 0 M0 19.31 C0 6.44, 6.44 0, 19.31 0" stroke="#ffffff" stroke-width="4" fill="none"></path></g><g stroke-linecap="round" transform="translate(51.29444927513629 141.59237180504988) rotate(180.48423605016058 39.490319094663676 38.61772396368758)"><path d="M19.31 0 L64.2 0.3 L71.44 2.72 L76.27 7.54 L78.68 14.78 L78.98 19.31 L78.68 62.45 L76.27 69.69 L71.44 74.52 L68.12 76.03 L59.67 77.24 L14.78 76.93 L7.54 74.52 L2.72 69.69 L1.21 66.37 L0 57.93 L0 19.31 L1.21 10.86 L4.83 4.83 L7.54 2.72 L14.78 0.3 L19.31 0" stroke="none" stroke-width="0" fill="#1e1e1e"></path><path d="M19.31 0 M19.31 0 C29.73 0, 40.15 0, 59.67 0 M19.31 0 C29.6 0, 39.88 0, 59.67 0 M59.67 0 C72.54 0, 78.98 6.44, 78.98 19.31 M59.67 0 C72.54 0, 78.98 6.44, 78.98 19.31 M78.98 19.31 C78.98 27.08, 78.98 34.85, 78.98 57.93 M78.98 19.31 C78.98 31.46, 78.98 43.61, 78.98 57.93 M78.98 57.93 C78.98 70.8, 72.54 77.24, 59.67 77.24 M78.98 57.93 C78.98 70.8, 72.54 77.24, 59.67 77.24 M59.67 77.24 C45.35 77.24, 31.02 77.24, 19.31 77.24 M59.67 77.24 C44.16 77.24, 28.65 77.24, 19.31 77.24 M19.31 77.24 C6.44 77.24, 0 70.8, 0 57.93 M19.31 77.24 C6.44 77.24, 0 70.8, 0 57.93 M0 57.93 C0 46.29, 0 34.65, 0 19.31 M0 57.93 C0 47.14, 0 36.35, 0 19.31 M0 19.31 C0 6.44, 6.44 0, 19.31 0 M0 19.31 C0 6.44, 6.44 0, 19.31 0" stroke="#1e1e1e" stroke-width="4" fill="none"></path></g><g stroke-linecap="round" transform="translate(73.90635938937902 119.39922357006662) rotate(180.48423605016058 39.490319094663676 38.61772396368758)"><path d="M19.31 0 L64.2 0.3 L71.44 2.72 L76.27 7.54 L78.68 14.78 L78.98 19.31 L78.68 62.45 L76.27 69.69 L71.44 74.52 L68.12 76.03 L59.67 77.24 L14.78 76.93 L7.54 74.52 L2.72 69.69 L1.21 66.37 L0 57.93 L0 19.31 L1.21 10.86 L4.83 4.83 L7.54 2.72 L14.78 0.3 L19.31 0" stroke="none" stroke-width="0" fill="#ffffff"></path><path d="M19.31 0 M19.31 0 C34.81 0, 50.3 0, 59.67 0 M19.31 0 C34.38 0, 49.45 0, 59.67 0 M59.67 0 C72.54 0, 78.98 6.44, 78.98 19.31 M59.67 0 C72.54 0, 78.98 6.44, 78.98 19.31 M78.98 19.31 C78.98 28.98, 78.98 38.64, 78.98 57.93 M78.98 19.31 C78.98 29.19, 78.98 39.06, 78.98 57.93 M78.98 57.93 C78.98 70.8, 72.54 77.24, 59.67 77.24 M78.98 57.93 C78.98 70.8, 72.54 77.24, 59.67 77.24 M59.67 77.24 C50.39 77.24, 41.1 77.24, 19.31 77.24 M59.67 77.24 C46.01 77.24, 32.36 77.24, 19.31 77.24 M19.31 77.24 C6.44 77.24, 0 70.8, 0 57.93 M19.31 77.24 C6.44 77.24, 0 70.8, 0 57.93 M0 57.93 C0 43.42, 0 28.92, 0 19.31 M0 57.93 C0 48.61, 0 39.29, 0 19.31 M0 19.31 C0 6.44, 6.44 0, 19.31 0 M0 19.31 C0 6.44, 6.44 0, 19.31 0" stroke="#ffffff" stroke-width="4" fill="none"></path></g></svg>