<svg version="1.1" xmlns="http://www.w3.org/2000/svg" viewBox="0 0 246.48312637071433 255.16549682617188" width="246.48312637071433" height="255.16549682617188">
  <!-- svg-source:excalidraw -->
  
  <defs>
    <style class="style-fonts">
      @font-face {
        font-family: "Virgil";
        src: url("https://excalidraw.com/Virgil.woff2");
      }
      @font-face {
        font-family: "Cascadia";
        src: url("https://excalidraw.com/Cascadia.woff2");
      }
    </style>
    
  </defs>
  <rect x="0" y="0" width="246.48312637071433" height="255.16549682617188" fill="#ffffff"></rect><g stroke-linecap="round" transform="translate(10 10) rotate(0 52.524688720703125 117.58274841308594)"><path d="M26.26 0 L84.94 0.41 L90.28 1.64 L94.79 3.69 L98.48 6.57 L101.36 10.26 L103.41 14.77 L105.05 26.26 L105.05 208.9 L104.64 215.06 L103.41 220.39 L101.36 224.91 L98.48 228.6 L94.79 231.47 L90.28 233.52 L78.79 235.17 L20.11 234.76 L14.77 233.52 L10.26 231.47 L6.57 228.6 L3.69 224.91 L1.64 220.39 L0 208.9 L0.41 20.11 L1.64 14.77 L3.69 10.26 L6.57 6.57 L10.26 3.69 L14.77 1.64 L26.26 0" stroke="none" stroke-width="0" fill="#1e1e1e"></path><path d="M26.26 0 M26.26 0 C41.4 0, 56.55 0, 78.79 0 M26.26 0 C37.91 0, 49.56 0, 78.79 0 M78.79 0 C96.3 0, 105.05 8.75, 105.05 26.26 M78.79 0 C96.3 0, 105.05 8.75, 105.05 26.26 M105.05 26.26 C105.05 73.07, 105.05 119.87, 105.05 208.9 M105.05 26.26 C105.05 83.29, 105.05 140.31, 105.05 208.9 M105.05 208.9 C105.05 226.41, 96.3 235.17, 78.79 235.17 M105.05 208.9 C105.05 226.41, 96.3 235.17, 78.79 235.17 M78.79 235.17 C58.85 235.17, 38.91 235.17, 26.26 235.17 M78.79 235.17 C67.15 235.17, 55.52 235.17, 26.26 235.17 M26.26 235.17 C8.75 235.17, 0 226.41, 0 208.9 M26.26 235.17 C8.75 235.17, 0 226.41, 0 208.9 M0 208.9 C0 158.55, 0 108.21, 0 26.26 M0 208.9 C0 153.95, 0 99, 0 26.26 M0 26.26 C0 8.75, 8.75 0, 26.26 0 M0 26.26 C0 8.75, 8.75 0, 26.26 0" stroke="#1e1e1e" stroke-width="4" fill="none"></path></g><g stroke-linecap="round" transform="translate(25.18313857774558 29.781007973759642) rotate(0 36.550872802734375 97.29560852050781)"><path d="M18.28 0 L54.83 0 L62.82 1.14 L68.53 4.57 L70.53 7.14 L72.82 13.99 L72.82 180.6 L71.96 184.31 L68.53 190.02 L62.82 193.45 L59.11 194.31 L18.28 194.59 L10.28 193.45 L4.57 190.02 L1.14 184.31 L0.29 180.6 L0.29 13.99 L1.14 10.28 L4.57 4.57 L10.28 1.14 L18.28 0" stroke="none" stroke-width="0" fill="#ffffff"></path><path d="M18.28 0 M18.28 0 C29.01 0, 39.73 0, 54.83 0 M18.28 0 C30.07 0, 41.86 0, 54.83 0 M54.83 0 C67.01 0, 73.1 6.09, 73.1 18.28 M54.83 0 C67.01 0, 73.1 6.09, 73.1 18.28 M73.1 18.28 C73.1 70.17, 73.1 122.07, 73.1 176.32 M73.1 18.28 C73.1 78.36, 73.1 138.44, 73.1 176.32 M73.1 176.32 C73.1 188.5, 67.01 194.59, 54.83 194.59 M73.1 176.32 C73.1 188.5, 67.01 194.59, 54.83 194.59 M54.83 194.59 C44.02 194.59, 33.22 194.59, 18.28 194.59 M54.83 194.59 C42.96 194.59, 31.08 194.59, 18.28 194.59 M18.28 194.59 C6.09 194.59, 0 188.5, 0 176.32 M18.28 194.59 C6.09 194.59, 0 188.5, 0 176.32 M0 176.32 C0 115.49, 0 54.66, 0 18.28 M0 176.32 C0 120.59, 0 64.87, 0 18.28 M0 18.28 C0 6.09, 6.09 0, 18.28 0 M0 18.28 C0 6.09, 6.09 0, 18.28 0" stroke="#1e1e1e" stroke-width="4" fill="none"></path></g><g stroke-linecap="round" transform="translate(147.154052734375 29.46640014648426) rotate(0 44.129119873046875 44.34948730468756)"><path d="M22.06 0 L71.37 0.34 L79.64 3.1 L85.16 8.62 L86.88 12.41 L88.26 22.06 L87.91 71.81 L85.16 80.08 L79.64 85.6 L75.85 87.32 L66.19 88.7 L16.89 88.35 L8.62 85.6 L3.1 80.08 L1.38 76.29 L0 66.63 L0 22.06 L1.38 12.41 L5.52 5.52 L8.62 3.1 L12.41 1.38 L22.06 0" stroke="none" stroke-width="0" fill="#1e1e1e"></path><path d="M22.06 0 M22.06 0 C34.62 0, 47.17 0, 66.19 0 M22.06 0 C32.91 0, 43.75 0, 66.19 0 M66.19 0 C80.9 0, 88.26 7.35, 88.26 22.06 M66.19 0 C80.9 0, 88.26 7.35, 88.26 22.06 M88.26 22.06 C88.26 32.45, 88.26 42.83, 88.26 66.63 M88.26 22.06 C88.26 33.43, 88.26 44.8, 88.26 66.63 M88.26 66.63 C88.26 81.34, 80.9 88.7, 66.19 88.7 M88.26 66.63 C88.26 81.34, 80.9 88.7, 66.19 88.7 M66.19 88.7 C56.48 88.7, 46.77 88.7, 22.06 88.7 M66.19 88.7 C54.3 88.7, 42.4 88.7, 22.06 88.7 M22.06 88.7 C7.35 88.7, 0 81.34, 0 66.63 M22.06 88.7 C7.35 88.7, 0 81.34, 0 66.63 M0 66.63 C0 56.03, 0 45.43, 0 22.06 M0 66.63 C0 53.78, 0 40.93, 0 22.06 M0 22.06 C0 7.35, 7.35 0, 22.06 0 M0 22.06 C0 7.35, 7.35 0, 22.06 0" stroke="#1e1e1e" stroke-width="4" fill="none"></path></g><g stroke-linecap="round" transform="translate(163.73269912462058 47.092455117314444) rotate(0 28.2430419921875 26.771026611328125)"><path d="M13.39 0 L46.24 0.21 L51.26 1.88 L54.6 5.23 L55.65 7.53 L56.49 13.39 L56.28 43.29 L54.6 48.31 L51.26 51.66 L48.96 52.71 L43.1 53.54 L10.25 53.33 L5.23 51.66 L1.88 48.31 L0.84 46.01 L0 40.16 L0 13.39 L0.84 7.53 L1.88 5.23 L5.23 1.88 L7.53 0.84 L13.39 0" stroke="none" stroke-width="0" fill="#ffffff"></path><path d="M13.39 0 M13.39 0 C24.42 0, 35.45 0, 43.1 0 M13.39 0 C24.36 0, 35.33 0, 43.1 0 M43.1 0 C52.02 0, 56.49 4.46, 56.49 13.39 M43.1 0 C52.02 0, 56.49 4.46, 56.49 13.39 M56.49 13.39 C56.49 19.33, 56.49 25.28, 56.49 40.16 M56.49 13.39 C56.49 20.1, 56.49 26.82, 56.49 40.16 M56.49 40.16 C56.49 49.08, 52.02 53.54, 43.1 53.54 M56.49 40.16 C56.49 49.08, 52.02 53.54, 43.1 53.54 M43.1 53.54 C36.73 53.54, 30.36 53.54, 13.39 53.54 M43.1 53.54 C33.38 53.54, 23.66 53.54, 13.39 53.54 M13.39 53.54 C4.46 53.54, 0 49.08, 0 40.16 M13.39 53.54 C4.46 53.54, 0 49.08, 0 40.16 M0 40.16 C0 32.28, 0 24.41, 0 13.39 M0 40.16 C0 32.28, 0 24.4, 0 13.39 M0 13.39 C0 4.46, 4.46 0, 13.39 0 M0 13.39 C0 4.46, 4.46 0, 13.39 0" stroke="#1e1e1e" stroke-width="4" fill="none"></path></g><g stroke-linecap="round" transform="translate(148.22488662462058 138.85789701184558) rotate(0 44.129119873046875 44.3494873046875)"><path d="M22.06 0 L71.37 0.34 L79.64 3.1 L85.16 8.62 L86.88 12.41 L88.26 22.06 L87.91 71.81 L85.16 80.08 L79.64 85.6 L75.85 87.32 L66.19 88.7 L16.89 88.35 L8.62 85.6 L3.1 80.08 L1.38 76.29 L0 66.63 L0 22.06 L1.38 12.41 L5.52 5.52 L8.62 3.1 L12.41 1.38 L22.06 0" stroke="none" stroke-width="0" fill="#1e1e1e"></path><path d="M22.06 0 M22.06 0 C31.41 0, 40.76 0, 66.19 0 M22.06 0 C37.25 0, 52.43 0, 66.19 0 M66.19 0 C80.9 0, 88.26 7.35, 88.26 22.06 M66.19 0 C80.9 0, 88.26 7.35, 88.26 22.06 M88.26 22.06 C88.26 38.29, 88.26 54.51, 88.26 66.63 M88.26 22.06 C88.26 37.9, 88.26 53.74, 88.26 66.63 M88.26 66.63 C88.26 81.34, 80.9 88.7, 66.19 88.7 M88.26 66.63 C88.26 81.34, 80.9 88.7, 66.19 88.7 M66.19 88.7 C49.95 88.7, 33.71 88.7, 22.06 88.7 M66.19 88.7 C51.95 88.7, 37.71 88.7, 22.06 88.7 M22.06 88.7 C7.35 88.7, 0 81.34, 0 66.63 M22.06 88.7 C7.35 88.7, 0 81.34, 0 66.63 M0 66.63 C0 57.57, 0 48.5, 0 22.06 M0 66.63 C0 51.41, 0 36.18, 0 22.06 M0 22.06 C0 7.35, 7.35 0, 22.06 0 M0 22.06 C0 7.35, 7.35 0, 22.06 0" stroke="#1e1e1e" stroke-width="4" fill="none"></path></g><g stroke-linecap="round" transform="translate(164.80353301486616 156.48395198267553) rotate(0 28.2430419921875 26.771026611328125)"><path d="M13.39 0 L46.24 0.21 L51.26 1.88 L54.6 5.23 L55.65 7.53 L56.49 13.39 L56.28 43.29 L54.6 48.31 L51.26 51.66 L48.96 52.71 L43.1 53.54 L10.25 53.33 L5.23 51.66 L1.88 48.31 L0.84 46.01 L0 40.16 L0 13.39 L0.84 7.53 L1.88 5.23 L5.23 1.88 L7.53 0.84 L13.39 0" stroke="none" stroke-width="0" fill="#ffffff"></path><path d="M13.39 0 M13.39 0 C22.91 0, 32.43 0, 43.1 0 M13.39 0 C22.55 0, 31.72 0, 43.1 0 M43.1 0 C52.02 0, 56.49 4.46, 56.49 13.39 M43.1 0 C52.02 0, 56.49 4.46, 56.49 13.39 M56.49 13.39 C56.49 21.23, 56.49 29.07, 56.49 40.16 M56.49 13.39 C56.49 23.33, 56.49 33.27, 56.49 40.16 M56.49 40.16 C56.49 49.08, 52.02 53.54, 43.1 53.54 M56.49 40.16 C56.49 49.08, 52.02 53.54, 43.1 53.54 M43.1 53.54 C34.97 53.54, 26.84 53.54, 13.39 53.54 M43.1 53.54 C34.84 53.54, 26.58 53.54, 13.39 53.54 M13.39 53.54 C4.46 53.54, 0 49.08, 0 40.16 M13.39 53.54 C4.46 53.54, 0 49.08, 0 40.16 M0 40.16 C0 31.38, 0 22.61, 0 13.39 M0 40.16 C0 31.15, 0 22.15, 0 13.39 M0 13.39 C0 4.46, 4.46 0, 13.39 0 M0 13.39 C0 4.46, 4.46 0, 13.39 0" stroke="#1e1e1e" stroke-width="4" fill="none"></path></g></svg>