<svg version="1.1" xmlns="http://www.w3.org/2000/svg" viewBox="0 0 278.4180908203125 264.4682922363281" width="278.4180908203125" height="264.4682922363281">
  <!-- svg-source:excalidraw -->
  
  <defs>
    <style class="style-fonts">
      @font-face {
        font-family: "Virgil";
        src: url("https://excalidraw.com/Virgil.woff2");
      }
      @font-face {
        font-family: "Cascadia";
        src: url("https://excalidraw.com/Cascadia.woff2");
      }
    </style>
    
  </defs>
  <rect x="0" y="0" width="278.4180908203125" height="264.4682922363281" fill="#ffffff"></rect><g stroke-linecap="round" transform="translate(10 10) rotate(0 129.20904541015625 122.23414611816406)"><path d="M32 0 L226.42 0 L233.92 0.5 L240.42 2 L245.92 4.5 L250.42 8 L253.92 12.5 L256.42 18 L257.92 24.5 L258.42 32 L258.42 212.47 L257.92 219.97 L256.42 226.47 L253.92 231.97 L250.42 236.47 L245.92 239.97 L240.42 242.47 L233.92 243.97 L226.42 244.47 L32 244.47 L24.5 243.97 L18 242.47 L12.5 239.97 L8 236.47 L4.5 231.97 L2 226.47 L0.5 219.97 L0 212.47 L0.5 24.5 L2 18 L4.5 12.5 L8 8 L12.5 4.5 L18 2 L24.5 0.5 L32 0" stroke="none" stroke-width="0" fill="#1e1e1e"></path><path d="M32 0 M32 0 C90.45 0, 148.9 0, 226.42 0 M32 0 C86.79 0, 141.59 0, 226.42 0 M226.42 0 C247.75 0, 258.42 10.67, 258.42 32 M226.42 0 C247.75 0, 258.42 10.67, 258.42 32 M258.42 32 C258.42 75.36, 258.42 118.72, 258.42 212.47 M258.42 32 C258.42 72.94, 258.42 113.88, 258.42 212.47 M258.42 212.47 C258.42 233.8, 247.75 244.47, 226.42 244.47 M258.42 212.47 C258.42 233.8, 247.75 244.47, 226.42 244.47 M226.42 244.47 C158.93 244.47, 91.43 244.47, 32 244.47 M226.42 244.47 C178.83 244.47, 131.25 244.47, 32 244.47 M32 244.47 C10.67 244.47, 0 233.8, 0 212.47 M32 244.47 C10.67 244.47, 0 233.8, 0 212.47 M0 212.47 C0 159.73, 0 107, 0 32 M0 212.47 C0 176.06, 0 139.66, 0 32 M0 32 C0 10.67, 10.67 0, 32 0 M0 32 C0 10.67, 10.67 0, 32 0" stroke="#1e1e1e" stroke-width="4" fill="none"></path></g><g stroke-linecap="round" transform="translate(27.18365478515625 29.484939575195312) rotate(0 111.29888916015625 104.16781616210938)"><path d="M32 0 L190.6 0 L198.1 0.5 L204.6 2 L210.1 4.5 L214.6 8 L218.1 12.5 L220.6 18 L222.1 24.5 L222.6 32 L222.6 176.34 L222.1 183.84 L220.6 190.34 L218.1 195.84 L214.6 200.34 L210.1 203.84 L204.6 206.34 L198.1 207.84 L190.6 208.34 L32 208.34 L24.5 207.84 L18 206.34 L12.5 203.84 L8 200.34 L4.5 195.84 L2 190.34 L0.5 183.84 L0 176.34 L0.5 24.5 L2 18 L4.5 12.5 L8 8 L12.5 4.5 L18 2 L24.5 0.5 L32 0" stroke="none" stroke-width="0" fill="#ffffff"></path><path d="M32 0 M32 0 C87.35 0, 142.7 0, 190.6 0 M32 0 C69.47 0, 106.94 0, 190.6 0 M190.6 0 C211.93 0, 222.6 10.67, 222.6 32 M190.6 0 C211.93 0, 222.6 10.67, 222.6 32 M222.6 32 C222.6 73.24, 222.6 114.49, 222.6 176.34 M222.6 32 C222.6 63.82, 222.6 95.65, 222.6 176.34 M222.6 176.34 C222.6 197.67, 211.93 208.34, 190.6 208.34 M222.6 176.34 C222.6 197.67, 211.93 208.34, 190.6 208.34 M190.6 208.34 C136 208.34, 81.41 208.34, 32 208.34 M190.6 208.34 C132.62 208.34, 74.64 208.34, 32 208.34 M32 208.34 C10.67 208.34, 0 197.67, 0 176.34 M32 208.34 C10.67 208.34, 0 197.67, 0 176.34 M0 176.34 C0 140.83, 0 105.33, 0 32 M0 176.34 C0 147.3, 0 118.27, 0 32 M0 32 C0 10.67, 10.67 0, 32 0 M0 32 C0 10.67, 10.67 0, 32 0" stroke="#1e1e1e" stroke-width="4" fill="none"></path></g><g stroke-linecap="round" transform="translate(173.088623046875 29.1571044921875) rotate(0 6.989898681640627 104.28337097167969)"><path d="M3.49 0 L12.01 0.22 L13.76 1.97 L13.98 3.49 L13.98 205.07 L13.11 207.69 L10.48 208.57 L1.97 208.35 L0.22 206.6 L0 205.07 L0 3.49 L0.87 0.87 L3.49 0" stroke="none" stroke-width="0" fill="#1e1e1e"></path><path d="M3.49 0 M3.49 0 C5.62 0, 7.75 0, 10.48 0 M3.49 0 C5.98 0, 8.47 0, 10.48 0 M10.48 0 C12.81 0, 13.98 1.16, 13.98 3.49 M10.48 0 C12.81 0, 13.98 1.16, 13.98 3.49 M13.98 3.49 C13.98 78.69, 13.98 153.88, 13.98 205.07 M13.98 3.49 C13.98 69.5, 13.98 135.5, 13.98 205.07 M13.98 205.07 C13.98 207.4, 12.81 208.57, 10.48 208.57 M13.98 205.07 C13.98 207.4, 12.81 208.57, 10.48 208.57 M10.48 208.57 C8.05 208.57, 5.61 208.57, 3.49 208.57 M10.48 208.57 C8.83 208.57, 7.18 208.57, 3.49 208.57 M3.49 208.57 C1.16 208.57, 0 207.4, 0 205.07 M3.49 208.57 C1.16 208.57, 0 207.4, 0 205.07 M0 205.07 C0 147.47, 0 89.87, 0 3.49 M0 205.07 C0 160.63, 0 116.19, 0 3.49 M0 3.49 C0 1.16, 1.16 0, 3.49 0 M0 3.49 C0 1.16, 1.16 0, 3.49 0" stroke="#1e1e1e" stroke-width="4" fill="none"></path></g><g stroke-linecap="round" transform="translate(71.73890927307882 93.70378763476674) rotate(134.02937642007987 39.49031909466368 38.61772396368758)"><path d="M19.31 0 L64.2 0.3 L71.44 2.72 L76.27 7.54 L78.68 14.78 L78.98 19.31 L78.68 62.45 L76.27 69.69 L71.44 74.52 L68.12 76.03 L59.67 77.24 L14.78 76.93 L7.54 74.52 L2.72 69.69 L1.21 66.37 L0 57.93 L0 19.31 L1.21 10.86 L4.83 4.83 L7.54 2.72 L14.78 0.3 L19.31 0" stroke="none" stroke-width="0" fill="#1e1e1e"></path><path d="M19.31 0 M19.31 0 C29.75 0, 40.19 0, 59.67 0 M19.31 0 C31.29 0, 43.28 0, 59.67 0 M59.67 0 C72.54 0, 78.98 6.44, 78.98 19.31 M59.67 0 C72.54 0, 78.98 6.44, 78.98 19.31 M78.98 19.31 C78.98 30.92, 78.98 42.53, 78.98 57.93 M78.98 19.31 C78.98 30.19, 78.98 41.08, 78.98 57.93 M78.98 57.93 C78.98 70.8, 72.54 77.24, 59.67 77.24 M78.98 57.93 C78.98 70.8, 72.54 77.24, 59.67 77.24 M59.67 77.24 C49.97 77.24, 40.28 77.24, 19.31 77.24 M59.67 77.24 C50.52 77.24, 41.36 77.24, 19.31 77.24 M19.31 77.24 C6.44 77.24, 0 70.8, 0 57.93 M19.31 77.24 C6.44 77.24, 0 70.8, 0 57.93 M0 57.93 C0 44.52, 0 31.11, 0 19.31 M0 57.93 C0 48.47, 0 39.02, 0 19.31 M0 19.31 C0 6.44, 6.44 0, 19.31 0 M0 19.31 C0 6.44, 6.44 0, 19.31 0" stroke="#1e1e1e" stroke-width="4" fill="none"></path></g><g stroke-linecap="round" transform="translate(40.060603904781374 94.26883328551412) rotate(134.02937642007987 39.49031909466368 38.61772396368758)"><path d="M19.31 0 L64.2 0.3 L71.44 2.72 L76.27 7.54 L78.68 14.78 L78.98 19.31 L78.68 62.45 L76.27 69.69 L71.44 74.52 L68.12 76.03 L59.67 77.24 L14.78 76.93 L7.54 74.52 L2.72 69.69 L1.21 66.37 L0 57.93 L0 19.31 L1.21 10.86 L4.83 4.83 L7.54 2.72 L14.78 0.3 L19.31 0" stroke="none" stroke-width="0" fill="#ffffff"></path><path d="M19.31 0 M19.31 0 C34.36 0, 49.42 0, 59.67 0 M19.31 0 C32.53 0, 45.74 0, 59.67 0 M59.67 0 C72.54 0, 78.98 6.44, 78.98 19.31 M59.67 0 C72.54 0, 78.98 6.44, 78.98 19.31 M78.98 19.31 C78.98 32.79, 78.98 46.26, 78.98 57.93 M78.98 19.31 C78.98 28.43, 78.98 37.56, 78.98 57.93 M78.98 57.93 C78.98 70.8, 72.54 77.24, 59.67 77.24 M78.98 57.93 C78.98 70.8, 72.54 77.24, 59.67 77.24 M59.67 77.24 C48.14 77.24, 36.6 77.24, 19.31 77.24 M59.67 77.24 C50.77 77.24, 41.87 77.24, 19.31 77.24 M19.31 77.24 C6.44 77.24, 0 70.8, 0 57.93 M19.31 77.24 C6.44 77.24, 0 70.8, 0 57.93 M0 57.93 C0 44.63, 0 31.34, 0 19.31 M0 57.93 C0 43.81, 0 29.69, 0 19.31 M0 19.31 C0 6.44, 6.44 0, 19.31 0 M0 19.31 C0 6.44, 6.44 0, 19.31 0" stroke="#ffffff" stroke-width="4" fill="none"></path></g></svg>