<svg version="1.1" xmlns="http://www.w3.org/2000/svg" viewBox="0 0 278.4180908203125 264.4682922363281" width="278.4180908203125" height="264.4682922363281">
  <!-- svg-source:excalidraw -->
  
  <defs>
    <style class="style-fonts">
      @font-face {
        font-family: "Virgil";
        src: url("https://excalidraw.com/Virgil.woff2");
      }
      @font-face {
        font-family: "Cascadia";
        src: url("https://excalidraw.com/Cascadia.woff2");
      }
    </style>
    
  </defs>
  <rect x="0" y="0" width="278.4180908203125" height="264.4682922363281" fill="#ffffff"></rect><g stroke-linecap="round" transform="translate(10 10) rotate(0 129.20904541015625 122.23414611816406)"><path d="M32 0 L226.42 0 L233.92 0.5 L240.42 2 L245.92 4.5 L250.42 8 L253.92 12.5 L256.42 18 L257.92 24.5 L258.42 32 L258.42 212.47 L257.92 219.97 L256.42 226.47 L253.92 231.97 L250.42 236.47 L245.92 239.97 L240.42 242.47 L233.92 243.97 L226.42 244.47 L32 244.47 L24.5 243.97 L18 242.47 L12.5 239.97 L8 236.47 L4.5 231.97 L2 226.47 L0.5 219.97 L0 212.47 L0.5 24.5 L2 18 L4.5 12.5 L8 8 L12.5 4.5 L18 2 L24.5 0.5 L32 0" stroke="none" stroke-width="0" fill="#1e1e1e"></path><path d="M32 0 M32 0 C73.84 0, 115.68 0, 226.42 0 M32 0 C102.47 0, 172.94 0, 226.42 0 M226.42 0 C247.75 0, 258.42 10.67, 258.42 32 M226.42 0 C247.75 0, 258.42 10.67, 258.42 32 M258.42 32 C258.42 68.65, 258.42 105.29, 258.42 212.47 M258.42 32 C258.42 101.46, 258.42 170.93, 258.42 212.47 M258.42 212.47 C258.42 233.8, 247.75 244.47, 226.42 244.47 M258.42 212.47 C258.42 233.8, 247.75 244.47, 226.42 244.47 M226.42 244.47 C184.35 244.47, 142.28 244.47, 32 244.47 M226.42 244.47 C161.75 244.47, 97.07 244.47, 32 244.47 M32 244.47 C10.67 244.47, 0 233.8, 0 212.47 M32 244.47 C10.67 244.47, 0 233.8, 0 212.47 M0 212.47 C0 141.17, 0 69.87, 0 32 M0 212.47 C0 154.15, 0 95.83, 0 32 M0 32 C0 10.67, 10.67 0, 32 0 M0 32 C0 10.67, 10.67 0, 32 0" stroke="#1e1e1e" stroke-width="4" fill="none"></path></g><g stroke-linecap="round" transform="translate(28.63665771484375 29.484939575195312) rotate(0 111.29888916015625 104.16781616210938)"><path d="M32 0 L190.6 0 L198.1 0.5 L204.6 2 L210.1 4.5 L214.6 8 L218.1 12.5 L220.6 18 L222.1 24.5 L222.6 32 L222.6 176.34 L222.1 183.84 L220.6 190.34 L218.1 195.84 L214.6 200.34 L210.1 203.84 L204.6 206.34 L198.1 207.84 L190.6 208.34 L32 208.34 L24.5 207.84 L18 206.34 L12.5 203.84 L8 200.34 L4.5 195.84 L2 190.34 L0.5 183.84 L0 176.34 L0.5 24.5 L2 18 L4.5 12.5 L8 8 L12.5 4.5 L18 2 L24.5 0.5 L32 0" stroke="none" stroke-width="0" fill="#ffffff"></path><path d="M32 0 M32 0 C82.29 0, 132.58 0, 190.6 0 M32 0 C65.13 0, 98.27 0, 190.6 0 M190.6 0 C211.93 0, 222.6 10.67, 222.6 32 M190.6 0 C211.93 0, 222.6 10.67, 222.6 32 M222.6 32 C222.6 74.01, 222.6 116.03, 222.6 176.34 M222.6 32 C222.6 72.72, 222.6 113.43, 222.6 176.34 M222.6 176.34 C222.6 197.67, 211.93 208.34, 190.6 208.34 M222.6 176.34 C222.6 197.67, 211.93 208.34, 190.6 208.34 M190.6 208.34 C132.77 208.34, 74.95 208.34, 32 208.34 M190.6 208.34 C157.31 208.34, 124.02 208.34, 32 208.34 M32 208.34 C10.67 208.34, 0 197.67, 0 176.34 M32 208.34 C10.67 208.34, 0 197.67, 0 176.34 M0 176.34 C0 130.31, 0 84.29, 0 32 M0 176.34 C0 128.34, 0 80.34, 0 32 M0 32 C0 10.67, 10.67 0, 32 0 M0 32 C0 10.67, 10.67 0, 32 0" stroke="#1e1e1e" stroke-width="4" fill="none"></path></g><g stroke-linecap="round" transform="translate(91.34967041015625 29.1571044921875) rotate(0 6.989898681640625 104.28337097167969)"><path d="M3.49 0 L12.01 0.22 L13.76 1.97 L13.98 3.49 L13.98 205.07 L13.11 207.69 L10.48 208.57 L1.97 208.35 L0.22 206.6 L0 205.07 L0 3.49 L0.87 0.87 L3.49 0" stroke="none" stroke-width="0" fill="#1e1e1e"></path><path d="M3.49 0 M3.49 0 C6.13 0, 8.77 0, 10.48 0 M3.49 0 C5.97 0, 8.45 0, 10.48 0 M10.48 0 C12.81 0, 13.98 1.16, 13.98 3.49 M10.48 0 C12.81 0, 13.98 1.16, 13.98 3.49 M13.98 3.49 C13.98 47.62, 13.98 91.75, 13.98 205.07 M13.98 3.49 C13.98 73.51, 13.98 143.52, 13.98 205.07 M13.98 205.07 C13.98 207.4, 12.81 208.57, 10.48 208.57 M13.98 205.07 C13.98 207.4, 12.81 208.57, 10.48 208.57 M10.48 208.57 C8.27 208.57, 6.05 208.57, 3.49 208.57 M10.48 208.57 C9.02 208.57, 7.56 208.57, 3.49 208.57 M3.49 208.57 C1.16 208.57, 0 207.4, 0 205.07 M3.49 208.57 C1.16 208.57, 0 207.4, 0 205.07 M0 205.07 C0 146.4, 0 87.72, 0 3.49 M0 205.07 C0 148.21, 0 91.35, 0 3.49 M0 3.49 C0 1.16, 1.16 0, 3.49 0 M0 3.49 C0 1.16, 1.16 0, 3.49 0" stroke="#1e1e1e" stroke-width="4" fill="none"></path></g><g stroke-linecap="round" transform="translate(127.6985433579063 93.70378763476697) rotate(225.97062357992016 39.49031909466368 38.61772396368758)"><path d="M19.31 0 L64.2 0.3 L71.44 2.72 L76.27 7.54 L78.68 14.78 L78.98 19.31 L78.68 62.45 L76.27 69.69 L71.44 74.52 L68.12 76.03 L59.67 77.24 L14.78 76.93 L7.54 74.52 L2.72 69.69 L1.21 66.37 L0 57.93 L0 19.31 L1.21 10.86 L4.83 4.83 L7.54 2.72 L14.78 0.3 L19.31 0" stroke="none" stroke-width="0" fill="#1e1e1e"></path><path d="M19.31 0 M19.31 0 C31.54 0, 43.77 0, 59.67 0 M19.31 0 C33.29 0, 47.27 0, 59.67 0 M59.67 0 C72.54 0, 78.98 6.44, 78.98 19.31 M59.67 0 C72.54 0, 78.98 6.44, 78.98 19.31 M78.98 19.31 C78.98 29.02, 78.98 38.73, 78.98 57.93 M78.98 19.31 C78.98 31.82, 78.98 44.33, 78.98 57.93 M78.98 57.93 C78.98 70.8, 72.54 77.24, 59.67 77.24 M78.98 57.93 C78.98 70.8, 72.54 77.24, 59.67 77.24 M59.67 77.24 C49 77.24, 38.32 77.24, 19.31 77.24 M59.67 77.24 C45.3 77.24, 30.92 77.24, 19.31 77.24 M19.31 77.24 C6.44 77.24, 0 70.8, 0 57.93 M19.31 77.24 C6.44 77.24, 0 70.8, 0 57.93 M0 57.93 C0 44.82, 0 31.72, 0 19.31 M0 57.93 C0 47.97, 0 38.01, 0 19.31 M0 19.31 C0 6.44, 6.44 0, 19.31 0 M0 19.31 C0 6.44, 6.44 0, 19.31 0" stroke="#1e1e1e" stroke-width="4" fill="none"></path></g><g stroke-linecap="round" transform="translate(159.37684872620375 94.26883328551435) rotate(225.97062357992016 39.49031909466368 38.61772396368758)"><path d="M19.31 0 L64.2 0.3 L71.44 2.72 L76.27 7.54 L78.68 14.78 L78.98 19.31 L78.68 62.45 L76.27 69.69 L71.44 74.52 L68.12 76.03 L59.67 77.24 L14.78 76.93 L7.54 74.52 L2.72 69.69 L1.21 66.37 L0 57.93 L0 19.31 L1.21 10.86 L4.83 4.83 L7.54 2.72 L14.78 0.3 L19.31 0" stroke="none" stroke-width="0" fill="#ffffff"></path><path d="M19.31 0 M19.31 0 C33.78 0, 48.26 0, 59.67 0 M19.31 0 C31.6 0, 43.9 0, 59.67 0 M59.67 0 C72.54 0, 78.98 6.44, 78.98 19.31 M59.67 0 C72.54 0, 78.98 6.44, 78.98 19.31 M78.98 19.31 C78.98 31.17, 78.98 43.03, 78.98 57.93 M78.98 19.31 C78.98 32.91, 78.98 46.51, 78.98 57.93 M78.98 57.93 C78.98 70.8, 72.54 77.24, 59.67 77.24 M78.98 57.93 C78.98 70.8, 72.54 77.24, 59.67 77.24 M59.67 77.24 C48.01 77.24, 36.36 77.24, 19.31 77.24 M59.67 77.24 C43.89 77.24, 28.1 77.24, 19.31 77.24 M19.31 77.24 C6.44 77.24, 0 70.8, 0 57.93 M19.31 77.24 C6.44 77.24, 0 70.8, 0 57.93 M0 57.93 C0 43.51, 0 29.08, 0 19.31 M0 57.93 C0 47.32, 0 36.71, 0 19.31 M0 19.31 C0 6.44, 6.44 0, 19.31 0 M0 19.31 C0 6.44, 6.44 0, 19.31 0" stroke="#ffffff" stroke-width="4" fill="none"></path></g></svg>